<svg width="14" height="15" viewBox="0 0 14 15" fill="#4E4B66" xmlns="http://www.w3.org/2000/svg">
    <path
        d="M7.00001 14.1667C3.31801 14.1667 0.333344 11.182 0.333344 7.50001C0.333344 3.81801 3.31801 0.833344 7.00001 0.833344C10.682 0.833344 13.6667 3.81801 13.6667 7.50001C13.6667 11.182 10.682 14.1667 7.00001 14.1667ZM7.00001 12.8333C8.4145 12.8333 9.77105 12.2714 10.7712 11.2712C11.7714 10.2711 12.3333 8.9145 12.3333 7.50001C12.3333 6.08552 11.7714 4.72897 10.7712 3.72877C9.77105 2.72858 8.4145 2.16668 7.00001 2.16668C5.58552 2.16668 4.22897 2.72858 3.22877 3.72877C2.22858 4.72897 1.66668 6.08552 1.66668 7.50001C1.66668 8.9145 2.22858 10.2711 3.22877 11.2712C4.22897 12.2714 5.58552 12.8333 7.00001 12.8333ZM6.33334 9.50001H7.66668V10.8333H6.33334V9.50001ZM6.33334 4.16668H7.66668V8.16668H6.33334V4.16668Z" />
</svg>